<svg width="160" height="47" viewBox="0 0 160 47" fill="none" xmlns="http://www.w3.org/2000/svg">
<rect width="160" height="47" rx="8" fill="#0077B5"/>
<path d="M55.5557 31.0986H54.1582L59.502 17.2031H60.8906L55.5557 31.0986ZM62.2529 25.166C62.2529 23.707 62.5986 22.5352 63.29 21.6504C63.9814 20.7598 64.8867 20.3145 66.0059 20.3145C67.1191 20.3145 68.001 20.6953 68.6514 21.457V16.5H70.2773V30H68.7832L68.7041 28.9805C68.0537 29.7773 67.1484 30.1758 65.9883 30.1758C64.8867 30.1758 63.9873 29.7246 63.29 28.8223C62.5986 27.9199 62.2529 26.7422 62.2529 25.2891V25.166ZM63.8789 25.3506C63.8789 26.4287 64.1016 27.2725 64.5469 27.8818C64.9922 28.4912 65.6074 28.7959 66.3926 28.7959C67.4238 28.7959 68.1768 28.333 68.6514 27.4072V23.0391C68.165 22.1426 67.418 21.6943 66.4102 21.6943C65.6133 21.6943 64.9922 22.002 64.5469 22.6172C64.1016 23.2324 63.8789 24.1436 63.8789 25.3506ZM78.6797 30C78.5859 29.8125 78.5098 29.4785 78.4512 28.998C77.6953 29.7832 76.793 30.1758 75.7441 30.1758C74.8066 30.1758 74.0361 29.9121 73.4326 29.3848C72.835 28.8516 72.5361 28.1777 72.5361 27.3633C72.5361 26.373 72.9111 25.6055 73.6611 25.0605C74.417 24.5098 75.4775 24.2344 76.8428 24.2344H78.4248V23.4873C78.4248 22.9189 78.2549 22.4678 77.915 22.1338C77.5752 21.7939 77.0742 21.624 76.4121 21.624C75.832 21.624 75.3457 21.7705 74.9531 22.0635C74.5605 22.3564 74.3643 22.7109 74.3643 23.127H72.7295C72.7295 22.6523 72.8965 22.1953 73.2305 21.7559C73.5703 21.3105 74.0273 20.959 74.6016 20.7012C75.1816 20.4434 75.8174 20.3145 76.5088 20.3145C77.6045 20.3145 78.4629 20.5898 79.084 21.1406C79.7051 21.6855 80.0273 22.4385 80.0508 23.3994V27.7764C80.0508 28.6494 80.1621 29.3438 80.3848 29.8594V30H78.6797ZM75.9814 28.7607C76.4912 28.7607 76.9746 28.6289 77.4316 28.3652C77.8887 28.1016 78.2197 27.7588 78.4248 27.3369V25.3857H77.1504C75.1582 25.3857 74.1621 25.9688 74.1621 27.1348C74.1621 27.6445 74.332 28.043 74.6719 28.3301C75.0117 28.6172 75.4482 28.7607 75.9814 28.7607ZM85.5967 27.7939L87.9521 20.4902H89.6133L86.2031 30H84.9639L81.5186 20.4902H83.1797L85.5967 27.7939ZM92.9443 30H91.3184V20.4902H92.9443V30ZM91.1865 17.9678C91.1865 17.7041 91.2656 17.4814 91.4238 17.2998C91.5879 17.1182 91.8281 17.0273 92.1445 17.0273C92.4609 17.0273 92.7012 17.1182 92.8652 17.2998C93.0293 17.4814 93.1113 17.7041 93.1113 17.9678C93.1113 18.2314 93.0293 18.4512 92.8652 18.627C92.7012 18.8027 92.4609 18.8906 92.1445 18.8906C91.8281 18.8906 91.5879 18.8027 91.4238 18.627C91.2656 18.4512 91.1865 18.2314 91.1865 17.9678ZM101.092 27.4775C101.092 27.0381 100.925 26.6982 100.591 26.458C100.263 26.2119 99.6855 26.001 98.8594 25.8252C98.0391 25.6494 97.3857 25.4385 96.8994 25.1924C96.4189 24.9463 96.0615 24.6533 95.8271 24.3135C95.5986 23.9736 95.4844 23.5693 95.4844 23.1006C95.4844 22.3213 95.8125 21.6621 96.4688 21.123C97.1309 20.584 97.9746 20.3145 99 20.3145C100.078 20.3145 100.951 20.5928 101.619 21.1494C102.293 21.7061 102.63 22.418 102.63 23.2852H100.995C100.995 22.8398 100.805 22.4561 100.424 22.1338C100.049 21.8115 99.5742 21.6504 99 21.6504C98.4082 21.6504 97.9453 21.7793 97.6113 22.0371C97.2773 22.2949 97.1104 22.6318 97.1104 23.0479C97.1104 23.4404 97.2656 23.7363 97.5762 23.9355C97.8867 24.1348 98.4463 24.3252 99.2549 24.5068C100.069 24.6885 100.729 24.9053 101.232 25.1572C101.736 25.4092 102.108 25.7139 102.349 26.0713C102.595 26.4229 102.718 26.8535 102.718 27.3633C102.718 28.2129 102.378 28.8955 101.698 29.4111C101.019 29.9209 100.137 30.1758 99.0527 30.1758C98.291 30.1758 97.6172 30.041 97.0312 29.7715C96.4453 29.502 95.9854 29.127 95.6514 28.6465C95.3232 28.1602 95.1592 27.6357 95.1592 27.0732H96.7852C96.8145 27.6182 97.0312 28.0518 97.4355 28.374C97.8457 28.6904 98.3848 28.8486 99.0527 28.8486C99.668 28.8486 100.16 28.7256 100.529 28.4795C100.904 28.2275 101.092 27.8936 101.092 27.4775ZM108.782 30.1758C107.493 30.1758 106.444 29.7539 105.636 28.9102C104.827 28.0605 104.423 26.9268 104.423 25.5088V25.21C104.423 24.2666 104.602 23.4258 104.959 22.6875C105.322 21.9434 105.826 21.3633 106.471 20.9473C107.121 20.5254 107.824 20.3145 108.58 20.3145C109.816 20.3145 110.777 20.7217 111.463 21.5361C112.148 22.3506 112.491 23.5166 112.491 25.0342V25.7109H106.049C106.072 26.6484 106.345 27.4072 106.866 27.9873C107.394 28.5615 108.062 28.8486 108.87 28.8486C109.444 28.8486 109.931 28.7314 110.329 28.4971C110.728 28.2627 111.076 27.9521 111.375 27.5654L112.368 28.3389C111.571 29.5635 110.376 30.1758 108.782 30.1758ZM108.58 21.6504C107.924 21.6504 107.373 21.8906 106.928 22.3711C106.482 22.8457 106.207 23.5137 106.102 24.375H110.865V24.252C110.818 23.4258 110.596 22.7871 110.197 22.3359C109.799 21.8789 109.26 21.6504 108.58 21.6504ZM120.252 30C120.158 29.8125 120.082 29.4785 120.023 28.998C119.268 29.7832 118.365 30.1758 117.316 30.1758C116.379 30.1758 115.608 29.9121 115.005 29.3848C114.407 28.8516 114.108 28.1777 114.108 27.3633C114.108 26.373 114.483 25.6055 115.233 25.0605C115.989 24.5098 117.05 24.2344 118.415 24.2344H119.997V23.4873C119.997 22.9189 119.827 22.4678 119.487 22.1338C119.147 21.7939 118.646 21.624 117.984 21.624C117.404 21.624 116.918 21.7705 116.525 22.0635C116.133 22.3564 115.937 22.7109 115.937 23.127H114.302C114.302 22.6523 114.469 22.1953 114.803 21.7559C115.143 21.3105 115.6 20.959 116.174 20.7012C116.754 20.4434 117.39 20.3145 118.081 20.3145C119.177 20.3145 120.035 20.5898 120.656 21.1406C121.277 21.6855 121.6 22.4385 121.623 23.3994V27.7764C121.623 28.6494 121.734 29.3438 121.957 29.8594V30H120.252ZM117.554 28.7607C118.063 28.7607 118.547 28.6289 119.004 28.3652C119.461 28.1016 119.792 27.7588 119.997 27.3369V25.3857H118.723C116.73 25.3857 115.734 25.9688 115.734 27.1348C115.734 27.6445 115.904 28.043 116.244 28.3301C116.584 28.6172 117.021 28.7607 117.554 28.7607ZM128.769 21.9492C128.522 21.9082 128.256 21.8877 127.969 21.8877C126.902 21.8877 126.179 22.3418 125.798 23.25V30H124.172V20.4902H125.754L125.78 21.5889C126.313 20.7393 127.069 20.3145 128.048 20.3145C128.364 20.3145 128.604 20.3555 128.769 20.4375V21.9492ZM134.042 30.1758C132.753 30.1758 131.704 29.7539 130.896 28.9102C130.087 28.0605 129.683 26.9268 129.683 25.5088V25.21C129.683 24.2666 129.861 23.4258 130.219 22.6875C130.582 21.9434 131.086 21.3633 131.73 20.9473C132.381 20.5254 133.084 20.3145 133.84 20.3145C135.076 20.3145 136.037 20.7217 136.723 21.5361C137.408 22.3506 137.751 23.5166 137.751 25.0342V25.7109H131.309C131.332 26.6484 131.604 27.4072 132.126 27.9873C132.653 28.5615 133.321 28.8486 134.13 28.8486C134.704 28.8486 135.19 28.7314 135.589 28.4971C135.987 28.2627 136.336 27.9521 136.635 27.5654L137.628 28.3389C136.831 29.5635 135.636 30.1758 134.042 30.1758ZM133.84 21.6504C133.184 21.6504 132.633 21.8906 132.188 22.3711C131.742 22.8457 131.467 23.5137 131.361 24.375H136.125V24.252C136.078 23.4258 135.855 22.7871 135.457 22.3359C135.059 21.8789 134.52 21.6504 133.84 21.6504ZM145.178 27.4775C145.178 27.0381 145.011 26.6982 144.677 26.458C144.349 26.2119 143.771 26.001 142.945 25.8252C142.125 25.6494 141.472 25.4385 140.985 25.1924C140.505 24.9463 140.147 24.6533 139.913 24.3135C139.685 23.9736 139.57 23.5693 139.57 23.1006C139.57 22.3213 139.898 21.6621 140.555 21.123C141.217 20.584 142.061 20.3145 143.086 20.3145C144.164 20.3145 145.037 20.5928 145.705 21.1494C146.379 21.7061 146.716 22.418 146.716 23.2852H145.081C145.081 22.8398 144.891 22.4561 144.51 22.1338C144.135 21.8115 143.66 21.6504 143.086 21.6504C142.494 21.6504 142.031 21.7793 141.697 22.0371C141.363 22.2949 141.196 22.6318 141.196 23.0479C141.196 23.4404 141.352 23.7363 141.662 23.9355C141.973 24.1348 142.532 24.3252 143.341 24.5068C144.155 24.6885 144.814 24.9053 145.318 25.1572C145.822 25.4092 146.194 25.7139 146.435 26.0713C146.681 26.4229 146.804 26.8535 146.804 27.3633C146.804 28.2129 146.464 28.8955 145.784 29.4111C145.104 29.9209 144.223 30.1758 143.139 30.1758C142.377 30.1758 141.703 30.041 141.117 29.7715C140.531 29.502 140.071 29.127 139.737 28.6465C139.409 28.1602 139.245 27.6357 139.245 27.0732H140.871C140.9 27.6182 141.117 28.0518 141.521 28.374C141.932 28.6904 142.471 28.8486 143.139 28.8486C143.754 28.8486 144.246 28.7256 144.615 28.4795C144.99 28.2275 145.178 27.8936 145.178 27.4775Z" fill="#FFFFFE"/>
<path fill-rule="evenodd" clip-rule="evenodd" d="M9 23C9 12.5066 17.5066 4 28 4C38.4934 4 47 12.5066 47 23C47 33.4934 38.4934 42 28 42C17.5066 42 9 33.4934 9 23Z" fill="#0077B5"/>
<path fill-rule="evenodd" clip-rule="evenodd" d="M22.7107 15.7346C22.6827 14.4662 21.7756 13.5 20.3027 13.5C18.8297 13.5 17.8667 14.4662 17.8667 15.7346C17.8667 16.9768 18.8012 17.9708 20.2468 17.9708H20.2743C21.7756 17.9708 22.7107 16.9768 22.7107 15.7346ZM22.4271 19.7366H18.1213V32.6738H22.4271V19.7366ZM32.9979 19.4329C35.8313 19.4329 37.9555 21.2823 37.9555 25.2561L37.9553 32.6738H33.6497V25.7524C33.6497 24.0139 33.0266 22.8276 31.4679 22.8276C30.2783 22.8276 29.5698 23.6274 29.2586 24.3998C29.1447 24.6766 29.1168 25.0623 29.1168 25.449V32.6742H24.8104C24.8104 32.6742 24.8672 20.951 24.8104 19.737H29.1168V21.5694C29.6883 20.6886 30.7118 19.4329 32.9979 19.4329Z" fill="white"/>
</svg>
