<svg width="160" height="47" viewBox="0 0 160 47" fill="none" xmlns="http://www.w3.org/2000/svg">
<rect width="160" height="47" rx="8" fill="#0077B5"/>
<path d="M48.8848 32.2207H47.0195L52.6152 16.7812H54.4805L48.8848 32.2207ZM55.6816 25.6387C55.6816 24.0111 56.0592 22.7057 56.8145 21.7227C57.5697 20.7331 58.582 20.2383 59.8516 20.2383C60.9714 20.2383 61.8763 20.6289 62.5664 21.4102V16H64.9395V31H62.791L62.6738 29.9062C61.9642 30.7656 61.0169 31.1953 59.832 31.1953C58.5951 31.1953 57.5924 30.6973 56.8242 29.7012C56.0625 28.7051 55.6816 27.3509 55.6816 25.6387ZM58.0547 25.8438C58.0547 26.918 58.2598 27.7578 58.6699 28.3633C59.0866 28.9622 59.6758 29.2617 60.4375 29.2617C61.4076 29.2617 62.1172 28.8288 62.5664 27.9629V23.4512C62.1302 22.6048 61.4271 22.1816 60.457 22.1816C59.6888 22.1816 59.0964 22.4876 58.6797 23.0996C58.263 23.7051 58.0547 24.6198 58.0547 25.8438ZM73.7285 31C73.6243 30.7982 73.5332 30.4694 73.4551 30.0137C72.6999 30.8014 71.7754 31.1953 70.6816 31.1953C69.6204 31.1953 68.7546 30.8926 68.084 30.2871C67.4134 29.6816 67.0781 28.9329 67.0781 28.041C67.0781 26.9147 67.4948 26.0521 68.3281 25.4531C69.168 24.8477 70.3659 24.5449 71.9219 24.5449H73.377V23.8516C73.377 23.3047 73.224 22.8685 72.918 22.543C72.612 22.2109 72.1465 22.0449 71.5215 22.0449C70.9811 22.0449 70.5384 22.1816 70.1934 22.4551C69.8483 22.722 69.6758 23.0638 69.6758 23.4805H67.3027C67.3027 22.901 67.4948 22.3607 67.8789 21.8594C68.263 21.3516 68.7839 20.9544 69.4414 20.668C70.1055 20.3815 70.8444 20.2383 71.6582 20.2383C72.8952 20.2383 73.8815 20.5508 74.6172 21.1758C75.3529 21.7943 75.7305 22.6667 75.75 23.793V28.5586C75.75 29.5091 75.8835 30.2676 76.1504 30.834V31H73.7285ZM71.1211 29.291C71.5898 29.291 72.0293 29.1771 72.4395 28.9492C72.8561 28.7214 73.1686 28.4154 73.377 28.0312V26.0391H72.0977C71.2188 26.0391 70.5579 26.1921 70.1152 26.498C69.6725 26.804 69.4512 27.237 69.4512 27.7969C69.4512 28.2526 69.6009 28.6172 69.9004 28.8906C70.2064 29.1576 70.6133 29.291 71.1211 29.291ZM81.8047 27.9922L84.041 20.4336H86.4922L82.8301 31H80.7695L77.0781 20.4336H79.5391L81.8047 27.9922ZM90.5059 31H88.1328V20.4336H90.5059V31ZM87.9863 17.6895C87.9863 17.3249 88.1003 17.0221 88.3281 16.7812C88.5625 16.5404 88.8945 16.4199 89.3242 16.4199C89.7539 16.4199 90.0859 16.5404 90.3203 16.7812C90.5547 17.0221 90.6719 17.3249 90.6719 17.6895C90.6719 18.0475 90.5547 18.347 90.3203 18.5879C90.0859 18.8223 89.7539 18.9395 89.3242 18.9395C88.8945 18.9395 88.5625 18.8223 88.3281 18.5879C88.1003 18.347 87.9863 18.0475 87.9863 17.6895ZM99.0215 28.1289C99.0215 27.7057 98.8457 27.3835 98.4941 27.1621C98.1491 26.9408 97.5729 26.7454 96.7656 26.5762C95.9583 26.4069 95.2845 26.1921 94.7441 25.9316C93.5592 25.3587 92.9668 24.5286 92.9668 23.4414C92.9668 22.5299 93.3509 21.7682 94.1191 21.1562C94.8874 20.5443 95.8639 20.2383 97.0488 20.2383C98.3118 20.2383 99.3307 20.5508 100.105 21.1758C100.887 21.8008 101.277 22.6113 101.277 23.6074H98.9043C98.9043 23.1517 98.735 22.7741 98.3965 22.4746C98.0579 22.1686 97.6087 22.0156 97.0488 22.0156C96.528 22.0156 96.1016 22.1361 95.7695 22.377C95.444 22.6178 95.2812 22.9401 95.2812 23.3438C95.2812 23.7083 95.4342 23.9915 95.7402 24.1934C96.0462 24.3952 96.6647 24.6003 97.5957 24.8086C98.5267 25.0104 99.2559 25.2546 99.7832 25.541C100.317 25.821 100.711 26.1595 100.965 26.5566C101.225 26.9538 101.355 27.4355 101.355 28.002C101.355 28.9525 100.962 29.724 100.174 30.3164C99.3861 30.9023 98.3542 31.1953 97.0781 31.1953C96.2122 31.1953 95.4408 31.0391 94.7637 30.7266C94.0866 30.4141 93.5592 29.9844 93.1816 29.4375C92.804 28.8906 92.6152 28.3014 92.6152 27.6699H94.9199C94.9525 28.2298 95.1641 28.6628 95.5547 28.9688C95.9453 29.2682 96.4629 29.418 97.1074 29.418C97.7324 29.418 98.2077 29.3008 98.5332 29.0664C98.8587 28.8255 99.0215 28.513 99.0215 28.1289ZM108.084 31.1953C106.58 31.1953 105.359 30.7233 104.422 29.7793C103.491 28.8288 103.025 27.5658 103.025 25.9902V25.6973C103.025 24.6426 103.227 23.7018 103.631 22.875C104.041 22.0417 104.614 21.3939 105.35 20.9316C106.085 20.4694 106.906 20.2383 107.811 20.2383C109.249 20.2383 110.359 20.6973 111.141 21.6152C111.928 22.5332 112.322 23.832 112.322 25.5117V26.4688H105.418C105.49 27.3411 105.779 28.0312 106.287 28.5391C106.801 29.0469 107.446 29.3008 108.221 29.3008C109.308 29.3008 110.193 28.8613 110.877 27.9824L112.156 29.2031C111.733 29.8346 111.167 30.3262 110.457 30.6777C109.754 31.0228 108.963 31.1953 108.084 31.1953ZM107.801 22.1426C107.15 22.1426 106.622 22.3704 106.219 22.8262C105.822 23.2819 105.568 23.9167 105.457 24.7305H109.979V24.5547C109.926 23.7604 109.715 23.1615 109.344 22.7578C108.973 22.3477 108.458 22.1426 107.801 22.1426ZM120.486 31C120.382 30.7982 120.291 30.4694 120.213 30.0137C119.458 30.8014 118.533 31.1953 117.439 31.1953C116.378 31.1953 115.512 30.8926 114.842 30.2871C114.171 29.6816 113.836 28.9329 113.836 28.041C113.836 26.9147 114.253 26.0521 115.086 25.4531C115.926 24.8477 117.124 24.5449 118.68 24.5449H120.135V23.8516C120.135 23.3047 119.982 22.8685 119.676 22.543C119.37 22.2109 118.904 22.0449 118.279 22.0449C117.739 22.0449 117.296 22.1816 116.951 22.4551C116.606 22.722 116.434 23.0638 116.434 23.4805H114.061C114.061 22.901 114.253 22.3607 114.637 21.8594C115.021 21.3516 115.542 20.9544 116.199 20.668C116.863 20.3815 117.602 20.2383 118.416 20.2383C119.653 20.2383 120.639 20.5508 121.375 21.1758C122.111 21.7943 122.488 22.6667 122.508 23.793V28.5586C122.508 29.5091 122.641 30.2676 122.908 30.834V31H120.486ZM117.879 29.291C118.348 29.291 118.787 29.1771 119.197 28.9492C119.614 28.7214 119.926 28.4154 120.135 28.0312V26.0391H118.855C117.977 26.0391 117.316 26.1921 116.873 26.498C116.43 26.804 116.209 27.237 116.209 27.7969C116.209 28.2526 116.359 28.6172 116.658 28.8906C116.964 29.1576 117.371 29.291 117.879 29.291ZM130.525 22.6016C130.213 22.5495 129.891 22.5234 129.559 22.5234C128.471 22.5234 127.739 22.9401 127.361 23.7734V31H124.988V20.4336H127.254L127.312 21.6152C127.885 20.6973 128.68 20.2383 129.695 20.2383C130.034 20.2383 130.314 20.2839 130.535 20.375L130.525 22.6016ZM136.482 31.1953C134.979 31.1953 133.758 30.7233 132.82 29.7793C131.889 28.8288 131.424 27.5658 131.424 25.9902V25.6973C131.424 24.6426 131.626 23.7018 132.029 22.875C132.439 22.0417 133.012 21.3939 133.748 20.9316C134.484 20.4694 135.304 20.2383 136.209 20.2383C137.648 20.2383 138.758 20.6973 139.539 21.6152C140.327 22.5332 140.721 23.832 140.721 25.5117V26.4688H133.816C133.888 27.3411 134.178 28.0312 134.686 28.5391C135.2 29.0469 135.844 29.3008 136.619 29.3008C137.706 29.3008 138.592 28.8613 139.275 27.9824L140.555 29.2031C140.132 29.8346 139.565 30.3262 138.855 30.6777C138.152 31.0228 137.361 31.1953 136.482 31.1953ZM136.199 22.1426C135.548 22.1426 135.021 22.3704 134.617 22.8262C134.22 23.2819 133.966 23.9167 133.855 24.7305H138.377V24.5547C138.325 23.7604 138.113 23.1615 137.742 22.7578C137.371 22.3477 136.857 22.1426 136.199 22.1426ZM148.494 28.1289C148.494 27.7057 148.318 27.3835 147.967 27.1621C147.622 26.9408 147.046 26.7454 146.238 26.5762C145.431 26.4069 144.757 26.1921 144.217 25.9316C143.032 25.3587 142.439 24.5286 142.439 23.4414C142.439 22.5299 142.824 21.7682 143.592 21.1562C144.36 20.5443 145.337 20.2383 146.521 20.2383C147.785 20.2383 148.803 20.5508 149.578 21.1758C150.359 21.8008 150.75 22.6113 150.75 23.6074H148.377C148.377 23.1517 148.208 22.7741 147.869 22.4746C147.531 22.1686 147.081 22.0156 146.521 22.0156C146.001 22.0156 145.574 22.1361 145.242 22.377C144.917 22.6178 144.754 22.9401 144.754 23.3438C144.754 23.7083 144.907 23.9915 145.213 24.1934C145.519 24.3952 146.137 24.6003 147.068 24.8086C147.999 25.0104 148.729 25.2546 149.256 25.541C149.79 25.821 150.184 26.1595 150.438 26.5566C150.698 26.9538 150.828 27.4355 150.828 28.002C150.828 28.9525 150.434 29.724 149.646 30.3164C148.859 30.9023 147.827 31.1953 146.551 31.1953C145.685 31.1953 144.913 31.0391 144.236 30.7266C143.559 30.4141 143.032 29.9844 142.654 29.4375C142.277 28.8906 142.088 28.3014 142.088 27.6699H144.393C144.425 28.2298 144.637 28.6628 145.027 28.9688C145.418 29.2682 145.936 29.418 146.58 29.418C147.205 29.418 147.68 29.3008 148.006 29.0664C148.331 28.8255 148.494 28.513 148.494 28.1289Z" fill="#FFFFFE"/>
<path fill-rule="evenodd" clip-rule="evenodd" d="M9 23C9 12.5066 17.5066 4 28 4C38.4934 4 47 12.5066 47 23C47 33.4934 38.4934 42 28 42C17.5066 42 9 33.4934 9 23Z" fill="#0077B5"/>
<path fill-rule="evenodd" clip-rule="evenodd" d="M22.7107 15.7346C22.6827 14.4662 21.7756 13.5 20.3027 13.5C18.8297 13.5 17.8667 14.4662 17.8667 15.7346C17.8667 16.9768 18.8012 17.9708 20.2468 17.9708H20.2743C21.7756 17.9708 22.7107 16.9768 22.7107 15.7346ZM22.4271 19.7366H18.1213V32.6738H22.4271V19.7366ZM32.9979 19.4329C35.8313 19.4329 37.9555 21.2823 37.9555 25.2561L37.9553 32.6738H33.6497V25.7524C33.6497 24.0139 33.0266 22.8276 31.4679 22.8276C30.2783 22.8276 29.5698 23.6274 29.2586 24.3998C29.1447 24.6766 29.1168 25.0623 29.1168 25.449V32.6742H24.8104C24.8104 32.6742 24.8672 20.951 24.8104 19.737H29.1168V21.5694C29.6883 20.6886 30.7118 19.4329 32.9979 19.4329Z" fill="white"/>
</svg>
